<svg width="23" height="24" viewBox="0 0 23 24" fill="none" xmlns="http://www.w3.org/2000/svg">
<path fill-rule="evenodd" clip-rule="evenodd" d="M3.7968 1.84628C5.9588 0.752096 8.62096 0 11.4839 0C14.2005 0 16.9558 0.717702 19.1246 1.81536C19.5077 2.00922 19.661 2.47689 19.4672 2.85993C19.2733 3.24297 18.8056 3.39633 18.4226 3.20248C16.4623 2.21035 13.9466 1.55464 11.4839 1.55464C8.88923 1.55464 6.46602 2.2378 4.49882 3.2334C4.11578 3.42725 3.64811 3.27389 3.45425 2.89085C3.2604 2.50781 3.41376 2.04014 3.7968 1.84628ZM5.14863 4.21642C7.02499 3.34054 9.43514 2.87569 11.475 2.87569C13.518 2.87569 15.8681 3.34176 17.7419 4.21642C19.8282 5.19032 21.5761 6.60491 22.7749 8.26992C23.0257 8.61831 22.9466 9.10409 22.5982 9.35493C22.2498 9.60578 21.7641 9.5267 21.5132 9.1783C20.4857 7.75117 18.9559 6.49881 17.0843 5.62515C15.4383 4.8568 13.3162 4.43033 11.475 4.43033C9.63045 4.43033 7.4496 4.85802 5.80622 5.62515C4.01535 6.46112 2.4105 7.80617 1.40989 9.20687C1.16035 9.5562 0.67487 9.63709 0.325543 9.38754C-0.0237834 9.138 -0.104673 8.65252 0.144871 8.30319C1.30876 6.67391 3.12742 5.15992 5.14863 4.21642ZM11.3759 5.68957C15.3797 5.65107 18.8735 7.71283 20.6465 10.6749C21.5771 12.2296 21.901 13.7926 21.901 15.1248C21.901 17.3937 19.8295 18.8088 17.9697 18.8088C17.0382 18.8088 16.0486 18.5596 15.2643 17.9616C14.4561 17.3453 13.922 16.3985 13.8841 15.1484C13.8614 14.3998 13.519 13.904 13.0491 13.572C12.5533 13.2217 11.9118 13.0574 11.3834 13.0574C9.94589 13.0574 8.94491 14.115 8.94491 15.1248C8.94491 15.9668 9.20925 17.149 9.55789 17.9315C9.91125 18.7246 10.5451 19.6481 11.1629 20.2071L11.1703 20.2138L11.1775 20.2206C12.1888 21.1841 13.4533 22.0422 15.3077 22.4646C15.7263 22.5599 15.9883 22.9765 15.893 23.3951C15.7977 23.8137 15.3811 24.0758 14.9625 23.9804C12.7811 23.4836 11.2772 22.4611 10.1122 21.353C9.31179 20.626 8.56306 19.5187 8.13782 18.5642C7.70653 17.5962 7.39026 16.1993 7.39026 15.1248C7.39026 13.1044 9.24766 11.5027 11.3834 11.5027C12.1846 11.5027 13.151 11.7404 13.9462 12.3023C14.7673 12.8824 15.3989 13.8091 15.438 15.1013C15.462 15.892 15.7782 16.3985 16.2069 16.7253C16.6594 17.0704 17.2932 17.2541 17.9697 17.2541C19.204 17.2541 20.3463 16.3192 20.3463 15.1248C20.3463 14.0452 20.0848 12.7634 19.3126 11.4734C17.8308 8.99798 14.8581 7.2108 11.3909 7.24414C8.38228 7.27307 5.18302 8.69395 3.54798 11.4408C2.85105 12.6117 2.50144 13.9497 2.54383 15.3487C2.60218 17.274 2.88286 18.0821 3.39075 19.4265C3.54246 19.8281 3.33989 20.2766 2.93829 20.4284C2.53669 20.5801 2.08814 20.3775 1.93642 19.9759C1.39299 18.5374 1.05524 17.552 0.9899 15.3957C0.938593 13.7026 1.36296 12.0722 2.21209 10.6456C4.18455 7.33189 7.9529 5.72248 11.3759 5.68957ZM4.20537 14.9939C4.21003 11.41 7.65893 8.59614 11.3834 8.59614C15.0873 8.59614 18.6851 11.1466 18.6851 15.2176C18.6851 15.6469 18.3371 15.9949 17.9078 15.9949C17.4785 15.9949 17.1305 15.6469 17.1305 15.2176C17.1305 12.2385 14.4822 10.1508 11.3834 10.1508C8.3077 10.1508 5.76001 12.466 5.76001 15.0011V15.0083L5.75988 15.0154C5.73399 16.4301 5.95922 17.78 6.69561 19.2245C7.44697 20.6983 8.35022 21.6994 9.17594 22.4263C9.49818 22.71 9.52946 23.2012 9.24579 23.5234C8.96213 23.8456 8.47095 23.8769 8.14872 23.5932C7.20486 22.7624 6.16713 21.6107 5.31057 19.9306C4.44029 18.2235 4.17653 16.6152 4.20537 14.9939ZM11.3834 14.3475C11.8127 14.3475 12.1607 14.6955 12.1607 15.1248C12.1607 15.9643 12.391 16.7597 12.8295 17.519C13.2515 18.2495 13.8006 18.7765 14.554 19.2332C15.6504 19.8313 16.403 20.0356 17.5478 20.0064L17.5532 20.0062L17.5585 20.0062C18.0106 20.0008 18.541 19.9635 18.9595 19.8905C19.3824 19.8167 19.785 20.0998 19.8588 20.5227C19.9325 20.9456 19.6495 21.3482 19.2266 21.422C18.703 21.5133 18.0872 21.5544 17.5822 21.5606C16.1214 21.5972 15.0992 21.3036 13.7932 20.5891L13.7789 20.5812L13.7649 20.5728C12.8142 19.9995 12.0582 19.2918 11.4833 18.2966C10.9224 17.3255 10.6061 16.2643 10.6061 15.1248C10.6061 14.6955 10.9541 14.3475 11.3834 14.3475Z" fill="white"/>
</svg>
