<svg width="118" height="117" viewBox="0 0 118 117" fill="none" xmlns="http://www.w3.org/2000/svg">
<path d="M1.3125 58.6842C1.3125 90.5423 27.1386 116.368 58.9967 116.368C90.8548 116.368 116.681 90.5423 116.681 58.6842C116.681 26.8261 90.8548 1 58.9967 1C27.1386 1 1.3125 26.8261 1.3125 58.6842Z" fill="#D9D9D9" fill-opacity="0.05" stroke="url(#paint0_linear_1618_40738)" stroke-linejoin="round"/>
<path d="M56.9467 29.4664L59.0005 73.118L61.0507 29.4843C61.0633 29.2054 61.019 28.9268 60.9203 28.6655C60.8217 28.4043 60.6708 28.166 60.4769 27.965C60.283 27.7641 60.0501 27.6048 59.7926 27.4969C59.5351 27.389 59.2582 27.3348 58.979 27.3375C58.7047 27.3402 58.4336 27.3978 58.1819 27.507C57.9302 27.6161 57.703 27.7746 57.5135 27.973C57.3241 28.1715 57.1763 28.4059 57.079 28.6624C56.9816 28.9189 56.9366 29.1922 56.9467 29.4664Z" fill="url(#paint1_linear_1618_40738)"/>
<path fill-rule="evenodd" clip-rule="evenodd" d="M58.9668 26.2058C59.3999 26.2016 59.8293 26.2858 60.2288 26.4531C60.6282 26.6205 60.9893 26.8675 61.2901 27.1792C61.5908 27.4908 61.8249 27.8605 61.9779 28.2657C62.1309 28.6708 62.1997 29.1029 62.18 29.5356L60.1298 73.1711C60.1014 73.7748 59.6037 74.2497 58.9994 74.2497C58.395 74.2497 57.8973 73.7749 57.8689 73.1712L55.8151 29.5196L56.9456 29.4664L55.8146 29.5078C55.799 29.0826 55.8688 28.6585 56.0198 28.2607C56.1708 27.8629 56.4 27.4994 56.6938 27.1916C56.9876 26.8838 57.3402 26.638 57.7305 26.4687C58.1209 26.2994 58.5413 26.21 58.9668 26.2058ZM58.9889 28.4691C58.8657 28.4703 58.7441 28.4962 58.6311 28.5452C58.5181 28.5942 58.416 28.6653 58.331 28.7544C58.2459 28.8435 58.1796 28.9488 58.1359 29.0639C58.0927 29.1776 58.0725 29.2987 58.0763 29.4202L58.0765 29.4249L58.9986 49.0223L59.919 29.433C59.9246 29.308 59.9047 29.1824 59.8605 29.0653C59.8162 28.9481 59.7484 28.841 59.6614 28.7508C59.5743 28.6606 59.4698 28.5891 59.3542 28.5407C59.2386 28.4922 59.1142 28.4679 58.9889 28.4691Z" fill="url(#paint2_linear_1618_40738)"/>
<path d="M58.9968 91.1627C58.3701 91.1627 57.7575 90.9769 57.2364 90.6287C56.7153 90.2805 56.3092 89.7856 56.0693 89.2066C55.8295 88.6276 55.7667 87.9905 55.889 87.3758C56.0113 86.7612 56.3131 86.1966 56.7562 85.7534C57.1994 85.3103 57.764 85.0085 58.3786 84.8862C58.9933 84.7639 59.6304 84.8267 60.2094 85.0665C60.7884 85.3064 61.2833 85.7125 61.6315 86.2336C61.9797 86.7547 62.1655 87.3673 62.1655 87.994C62.1655 88.8344 61.8317 89.6404 61.2374 90.2346C60.6432 90.8289 59.8372 91.1627 58.9968 91.1627Z" fill="url(#paint3_linear_1618_40738)"/>
<defs>
<linearGradient id="paint0_linear_1618_40738" x1="-31.2627" y1="-40.2392" x2="174.391" y2="21.5581" gradientUnits="userSpaceOnUse">
<stop offset="0.130208" stop-color="#89898A"/>
<stop offset="0.864583" stop-color="#B9B9B9"/>
</linearGradient>
<linearGradient id="paint1_linear_1618_40738" x1="56.9453" y1="27.3374" x2="61.3746" y2="27.3686" gradientUnits="userSpaceOnUse">
<stop stop-color="#F5614B"/>
<stop offset="0.0001" stop-color="#F5614B"/>
<stop offset="1" stop-color="#FA7545"/>
</linearGradient>
<linearGradient id="paint2_linear_1618_40738" x1="55.8125" y1="26.2057" x2="62.6821" y2="26.2771" gradientUnits="userSpaceOnUse">
<stop stop-color="#F5614B"/>
<stop offset="0.0001" stop-color="#F5614B"/>
<stop offset="1" stop-color="#FA7545"/>
</linearGradient>
<linearGradient id="paint3_linear_1618_40738" x1="55.8281" y1="84.8253" x2="62.6206" y2="85.3578" gradientUnits="userSpaceOnUse">
<stop stop-color="#F5614B"/>
<stop offset="0.0001" stop-color="#F5614B"/>
<stop offset="1" stop-color="#FA7545"/>
</linearGradient>
</defs>
</svg>
